<?xml version="1.0" encoding="UTF-8" standalone="no"?>
<svg
   xmlns:dc="http://purl.org/dc/elements/1.1/"
   xmlns:cc="http://creativecommons.org/ns#"
   xmlns:rdf="http://www.w3.org/1999/02/22-rdf-syntax-ns#"
   xmlns:svg="http://www.w3.org/2000/svg"
   xmlns="http://www.w3.org/2000/svg"
   xmlns:sodipodi="http://sodipodi.sourceforge.net/DTD/sodipodi-0.dtd"
   xmlns:inkscape="http://www.inkscape.org/namespaces/inkscape"
   version="1.1"
   width="700"
   height="700"
   id="svg11"
   viewBox="0 0 700 700"
   sodipodi:docname="lanus-logo.svg"
   inkscape:version="0.92.1 r15371"
   inkscape:export-filename="C:\Users\alex\sites\lanus-logo-0.png"
   inkscape:export-xdpi="561.73712"
   inkscape:export-ydpi="561.73712">
  <metadata
     id="metadata17">
    <rdf:RDF>
      <cc:Work
         rdf:about="">
        <dc:format>image/svg+xml</dc:format>
        <dc:type
           rdf:resource="http://purl.org/dc/dcmitype/StillImage" />
        <dc:title></dc:title>
      </cc:Work>
    </rdf:RDF>
  </metadata>
  <defs
     id="defs15" />
  <sodipodi:namedview
     pagecolor="#ffffff"
     bordercolor="#666666"
     borderopacity="1"
     objecttolerance="10"
     gridtolerance="10"
     guidetolerance="10"
     inkscape:pageopacity="0"
     inkscape:pageshadow="2"
     inkscape:window-width="1600"
     inkscape:window-height="838"
     id="namedview13"
     showgrid="false"
     inkscape:zoom="0.56064347"
     inkscape:cx="555.08401"
     inkscape:cy="285.33414"
     inkscape:window-x="-8"
     inkscape:window-y="-8"
     inkscape:window-maximized="1"
     inkscape:current-layer="svg11" />
  <g
     id="Layer1000"
     transform="matrix(0.9301928,0,0,0.9301928,73.139462,-41.559713)"
     inkscape:export-filename="C:\Users\alex\sites\lanus-logo-4.png"
     inkscape:export-xdpi="76.93486"
     inkscape:export-ydpi="76.93486">
    <path
       d="m 29.4449,439.6978 c 1.0553,15.0991 10.165,24.8063 20.7047,31.955 -6.3154,9.4918 -11.8194,21.4348 -6.7129,36.8249 4.9251,14.8341 15.9844,21.2129 28.2761,25.4161 -5.5625,8.8495 -6.7015,22.9925 3.039,37.394 9.5861,14.1722 24.2315,17.2535 34.2144,17.1942 -1.2732,10.7438 0.1455,24.8884 12.2918,35.3671 11.4592,9.8837 24.9859,10.1788 37.494,7.7805 2.2471,11.1763 6.5365,23.6811 21.0323,30.9517 13.9722,7.0081 26.3478,3.6057 38.0111,-2.1154 2.3252,10.191 11.473,21.0909 28.5444,24.3844 16.7991,3.2446 29.4697,-4.6732 36.4867,-11.7739 6.6967,8.4991 17.5592,17.1779 33.5648,16.0592 16.0064,-1.1187 25.5559,-11.2267 31.0054,-20.573 7.9366,6.0544 21.5844,12.13 37.7688,6.5812 16.4462,-5.6381 23.9876,-17.7039 24.8738,-28.1209 12.3454,4.0406 25.0746,5.6894 37.9363,-3.1951 13.3405,-9.2178 15.8478,-22.1965 16.5177,-33.5785 12.7211,0.6341 26.0738,-1.5399 36.0461,-12.9219 10.5706,-12.0666 10.0064,-26.2697 7.2511,-36.7346 9.8926,-1.3301 23.9673,-6.4203 31.4884,-21.7885 7.6406,-15.6161 4.5438,-29.4632 -2.1943,-37.4517 11.5869,-5.8764 21.651,-13.7283 24.4632,-29.103 2.9154,-15.9535 -4.1983,-27.0128 -11.7739,-35.5347 9.443,-8.5446 17.1129,-19.4267 16.0568,-34.5241 -1.0561,-15.099 -10.165,-24.8055 -20.7063,-31.9542 6.3162,-9.4918 11.8218,-21.4348 6.7145,-36.8249 -4.9251,-14.8365 -15.9852,-21.2128 -28.2761,-25.416 5.5625,-8.8504 6.7007,-22.9933 -3.0382,-37.394 -9.5861,-14.1723 -24.2324,-17.2536 -34.2152,-17.1942 1.274,-10.7463 -0.1455,-24.8892 -12.2918,-35.3672 -11.4576,-9.8845 -24.9859,-10.178 -37.4948,-7.7804 -2.2455,-11.1772 -6.5365,-23.6811 -21.0315,-30.9518 -13.9723,-7.0089 -26.3478,-3.6057 -38.0111,2.1162 -2.3243,-10.1934 -11.4731,-21.0916 -28.5453,-24.3851 -16.7998,-3.2455 -29.4688,4.6731 -36.4834,11.7739 -6.6983,-8.5 -17.5616,-17.1787 -33.5672,-16.0592 -16.0048,1.1178 -25.5543,11.2267 -31.0046,20.573 -7.9365,-6.0537 -21.5844,-12.1308 -37.7688,-6.5805 -16.447,5.6366 -23.9893,17.7048 -24.873,28.1193 -12.347,-4.0406 -25.0754,-5.6886 -37.9363,3.1967 -13.3421,9.2154 -15.8494,22.195 -16.5193,33.5778 -12.7203,-0.635 -26.0746,1.5398 -36.0469,12.9218 -10.5698,12.0674 -10.0056,26.2706 -7.2495,36.7347 -9.8934,1.3301 -23.9681,6.4186 -31.4884,21.7884 -7.6422,15.6153 -4.5455,29.4632 2.1943,37.4526 -11.5877,5.8731 -21.6518,13.7275 -24.4624,29.103 -2.9162,15.9511 4.1967,27.0119 11.7715,35.5322 -9.4422,8.5471 -17.1121,19.4259 -16.056,34.5249 z"
       style="fill:#7a1f2e;fill-opacity:1;fill-rule:evenodd"
       id="path2"
       inkscape:connector-curvature="0" />
    <path
       d="m 297.6378,210.3282 c 116.0055,0 210.6178,94.613 210.6178,210.6169 0,116.0023 -94.6131,210.6178 -210.6178,210.6178 -116.0039,-8e-4 -210.6161,-94.6147 -210.6161,-210.6178 0,-116.0047 94.6122,-210.6169 210.6161,-210.6169 z"
       style="fill:#ffffff;fill-rule:evenodd"
       id="path4"
       inkscape:connector-curvature="0" />
    <path
       d="m 297.6378,222.7175 c 109.1812,0 198.2284,89.0472 198.2284,198.2276 0,109.1796 -89.048,198.2268 -198.2284,198.2268 -109.1804,-8e-4 -198.2276,-89.0472 -198.2276,-198.2268 0,-109.1812 89.0472,-198.2276 198.2276,-198.2276 z"
       style="fill:#7a1f2d;fill-rule:evenodd"
       id="path6"
       inkscape:connector-curvature="0" />
    <path
       d="M 417.7514,294.9299 H 269.238 v 30.3567 h 175.836 c 4.491,6.3593 8.5349,13.0234 12.1178,19.9486 l -19.2267,-8e-4 c -20.2551,1.3902 -36.2574,15.3787 -36.2574,32.3347 0,16.8909 15.8746,30.8363 36.0135,32.3216 l 24.4282,-8e-4 c 0.8943,6.8244 1.3594,13.7788 1.3594,20.8364 8e-4,31.125 -8.991,60.2418 -24.5405,84.9685 l 15.5324,-9e-4 v 0.0122 c -4.2235,6.9626 -8.9105,13.617 -13.9958,19.9356 l -16.3161,-8e-4 c -19.3267,22.3259 -44.6761,39.4517 -73.5327,48.8817 l -8.6805,-18.0283 c 20.4934,-6.2763 39.0477,-16.9389 54.5354,-30.8526 l -198.7903,-8e-4 v 2.3683 c 11.5463,9.0154 24.4389,16.5145 38.342,22.1559 l -8.6056,17.8722 c -10.4666,-4.3382 -20.4137,-9.6178 -29.7364,-15.7194 v 19.5739 c -6.9601,-4.3398 -13.6234,-9.113 -19.9461,-14.2926 v -20.4307 c -4.1764,-3.6602 -8.1723,-7.504 -11.9707,-11.5268 l -18.899,-8e-4 c -4.8455,-6.3487 -9.3048,-13.0088 -13.334,-19.9461 l 16.0015,-9e-4 c -18.9202,-27.1477 -29.9697,-59.7482 -29.9697,-94.7488 0,-61.6621 34.2891,-115.8754 85.4879,-145.9622 h 44.2013 V 221.433 l 19.9461,-3.1415 v 56.6914 h 120.9502 c 9.8544,5.7935 19.0828,12.4845 27.5632,19.947 z m -243.25,220.764 h 3.2732 V 345.2344 h -16.9983 c -13.5787,22.2835 -21.3713,48.1549 -21.3713,75.7107 0,35.8233 13.1616,68.7986 35.0964,94.7488 z m 0.7797,-190.4073 h 74.0108 v -30.3567 h -38.8615 c -13.2438,8.3999 -25.0957,18.6486 -35.1493,30.3567 z m 93.9569,19.9478 v 64.6555 h 125.4144 c -7.9901,-8.9056 -12.7657,-20.138 -12.7657,-32.3208 0,-12.191 4.7829,-23.4275 12.7828,-32.3339 z m 0,84.6025 v 85.857 h 145.6793 c 18.0665,-23.729 28.7876,-53.1548 28.7876,-84.9676 8e-4,-0.2983 -8e-4,-0.5934 -0.003,-0.8894 z m -71.5173,-84.6025 v 64.6555 h 51.5712 v -64.6555 z m 0,84.6025 v 85.857 h 51.5712 v -85.857 z"
       style="fill:#ffffff;fill-rule:evenodd"
       id="path8"
       inkscape:connector-curvature="0" />
  </g>
</svg>
